PathFileType	4	(X/Y/Z)	/Users/mathieubourgeois/Desktop/Analyse/Traitement/Sujet_01/Data/Transformed_Sujet_01_velo_80.trc
DataRate	CameraRate	NumFrames	NumMarkers	Units	OrigDataRate	OrigDataStartFrame	OrigNumFrames
120.000000	120.000000	5	35	mm	120.000000	244	1957
Frame#	Time	RFHD			LFHD			RBHD			LBHD			RSHO			LSHO			CLAV			STRN			T10			RBWT			LBWT			RFWT			LFWT			RRAD			RWRA			RWRB			RCAR			RHUM			LHUM			LRAD			LWRA			LWRB			LCAR			RKNI			RKNE			LKNI			LKNE			RANE			RANI			RTOE			RHEE			LTOE			LANI			LANE			LHEE			
		X1	Y1	Z1	X2	Y2	Z2	X3	Y3	Z3	X4	Y4	Z4	X5	Y5	Z5	X6	Y6	Z6	X7	Y7	Z7	X8	Y8	Z8	X9	Y9	Z9	X10	Y10	Z10	X11	Y11	Z11	X12	Y12	Z12	X13	Y13	Z13	X14	Y14	Z14	X15	Y15	Z15	X16	Y16	Z16	X17	Y17	Z17	X18	Y18	Z18	X19	Y19	Z19	X20	Y20	Z20	X21	Y21	Z21	X22	Y22	Z22	X23	Y23	Z23	X24	Y24	Z24	X25	Y25	Z25	X26	Y26	Z26	X27	Y27	Z27	X28	Y28	Z28	X29	Y29	Z29	X30	Y30	Z30	X31	Y31	Z31	X32	Y32	Z32	X33	Y33	Z33	X34	Y34	Z34	X35	Y35	Z35	

245	2.033333333333333	190.942642211914	1437.525512695312	268.5825805664061	177.9268646240234	1430.630981445312	144.3125610351562	79.17343902587888	1539.78076171875	279.9214782714843	59.9649963378906	1536.119384765625	150.3608398437499	0.178925514221151	1390.9697265625	330.0568542480468	-5.464906215667738	1378.197631835938	111.2452468872069	22.46952056884763	1313.189331054688	232.9142303466796	-36.19208145141604	1222.633544921875	239.5857391357421	-218.5804443359375	1382.799926757812	248.3770904541014	-402.7678222656251	1109.484741210938	337.5414123535155	-414.2662963867188	1103.2177734375	217.7309417724608	-227.2915802001954	1068.521728515625	376.3971252441406	-239.970703125	1075.697998046875	152.8562622070312	138.6508178710937	1181.61572265625	478.0594787597656	301.6561279296874	1030.30322265625	406.05029296875	321.8082275390624	1049.3828125	466.4342346191406	405.1123352050781	1027.828979492188	404.5902404785156	90.66845703124994	1141.759765625	451.7166748046874	101.2980728149414	1131.169555664062	79.73020935058588	153.2434692382812	1161.2373046875	53.03765106201167	317.6575012207031	1036.930541992188	162.100830078125	343.4898376464844	1047.454711914062	98.77343749999997	402.0726623535156	1045.01904296875	172.2466583251953	-104.1048889160157	635.172119140625	329.2315063476562	-113.3055572509766	670.8818359375	444.4552917480468	41.31216812133787	894.5105590820312	180.6810607910156	13.14708137512206	882.513916015625	51.43044281005854	-111.3918685913087	325.8046875	433.3681335449219	-80.7045059204102	325.5878295898438	357.6187133789062	62.95103836059565	230.6428833007813	428.9837646484375	-171.3796081542969	293.9429626464844	386.068359375	-87.89889526367189	499.6955261230469	131.930191040039	-198.7393798828125	644.091552734375	184.0099792480468	-226.9020233154297	638.7088012695312	108.5137863159179	-305.0497741699219	626.8627319335938	160.4238281249999	
246	2.041666666666667	191.1353912353515	1437.563110351562	268.1197814941405	178.0714416503906	1430.714111328125	143.8822479248046	79.56441497802732	1539.99169921875	279.4774475097655	60.16147613525388	1536.254028320312	149.9871673583984	0.4465193450450494	1390.857421875	329.6282958984374	-5.276737689971937	1378.125854492188	110.6998748779296	22.88778495788571	1313.303100585938	232.3673858642577	-35.72842788696292	1222.514404296875	239.0700531005859	-218.3233032226563	1382.70654296875	248.2797698974608	-402.7052612304688	1109.527954101562	337.4529724121093	-414.2940368652344	1103.345092773438	217.5756988525389	-227.2257843017579	1068.093872070312	376.3056335449218	-240.1101379394532	1075.884521484375	152.8036804199218	138.6906127929687	1181.453857421875	478.2259521484374	301.5195312499999	1030.05517578125	405.9822387695312	321.6652832031249	1049.271362304688	466.3829956054688	404.8972473144531	1028.042358398438	404.4168395996094	90.64986419677729	1141.6005859375	451.9920043945312	101.1383514404297	1131.15380859375	79.30162048339838	153.1178283691406	1161.202514648438	52.68000030517573	317.5028381347656	1036.942138671875	161.9001159667968	343.3487243652344	1047.444580078125	98.57484436035153	401.9398498535156	1045.053588867188	172.0467224121094	-110.981430053711	630.9921264648438	327.7072143554687	-119.3813476562501	667.0859985351562	443.0207519531249	43.33738327026365	901.89306640625	180.8895568847656	15.92733192443847	890.1312255859375	52.22366714477533	-119.7970275878907	321.8202819824219	432.7293701171875	-88.92736053466801	321.0078125	357.0556030273438	53.17270278930659	223.6098022460938	428.716064453125	-180.0455932617188	290.8560180664062	385.4317626953125	-78.35024261474611	508.3750305175781	132.6749572753906	-194.6660614013672	649.7745361328125	184.5173187255859	-221.1999053955078	643.0761108398438	108.2168426513671	-299.4810180664062	628.9077758789062	159.6878662109374	
247	2.05	191.3217010498047	1437.550537109375	267.7042846679686	178.1683349609375	1430.750610351562	143.5372924804687	79.7524719238281	1539.982543945312	279.210968017578	60.29511642456053	1536.309204101562	149.7200469970702	0.6792510747909143	1390.724243164062	329.2659912109374	-5.175764560699476	1378.052001953125	110.2232055664062	23.13117408752439	1313.319213867188	232.0029754638671	-35.40112304687503	1222.3486328125	238.6111907958984	-218.1036834716797	1382.611694335938	248.1875610351561	-402.8468933105469	1109.593017578125	337.2438964843749	-414.4791259765625	1103.534912109375	217.2865600585936	-227.3030090332032	1067.72509765625	376.1931762695312	-240.3903045654297	1076.081420898438	152.6710662841796	138.6450805664062	1181.266357421875	478.3405761718749	301.3411254882812	1029.854248046875	405.9005126953125	321.5152282714843	1049.173706054688	466.3231506347656	404.6596069335937	1028.26171875	404.2297058105469	90.56465911865229	1141.408081054688	452.2223510742187	100.8653564453125	1131.102172851562	79.06777954101557	152.9178924560547	1161.11669921875	52.38366317749018	317.3276977539062	1036.943237304688	161.7544555664062	343.171630859375	1047.430908203125	98.37003326416013	401.7958679199219	1045.105102539062	171.8536834716797	-117.2232437133789	627.4873657226562	326.3004455566406	-124.9621047973633	663.8258666992188	441.7051696777343	44.50646209716795	909.23583984375	181.5906524658203	18.09028244018554	897.3328857421875	53.12375259399408	-128.5510406494141	318.4465026855469	432.0384216308594	-97.53047943115239	317.0885925292969	356.4447021484375	42.96987152099604	217.3920440673828	428.3943176269531	-189.0659332275391	288.3350830078125	384.765869140625	-68.64652252197267	516.4329223632812	133.3264465332031	-189.6155090332032	653.882568359375	184.3366699218749	-215.3849487304688	646.3922729492188	107.8033447265624	-293.6755676269531	629.7154541015625	158.7895202636718	
248	2.058333333333333	191.3932647705078	1437.412353515625	267.3857421874999	177.993423461914	1431.279296875	143.4905395507812	79.89479064941403	1539.873779296875	279.0196838378905	60.36226272583006	1536.301879882812	149.5404205322265	0.8221420049666955	1390.534057617188	328.9579772949218	-5.101933002471937	1377.951293945312	109.7720870971679	23.22140121459958	1313.19873046875	231.8185882568359	-35.24503326416018	1222.1240234375	238.2509002685546	-217.9488830566407	1382.503295898438	248.0846862792968	-403.1295776367188	1109.7060546875	336.9757995605468	-414.7931823730469	1103.765014648438	216.9698486328124	-227.5023193359376	1067.411254882812	376.0730285644531	-240.7722320556641	1076.314575195312	152.4794769287109	138.5495452880859	1181.076416015625	478.4237670898437	301.1864624023437	1029.701293945312	405.8000183105469	321.3491516113281	1049.0927734375	466.2648010253906	404.4356079101562	1028.439453125	404.061767578125	90.45437622070307	1141.192016601562	452.3338317871093	100.5783996582031	1131.0107421875	78.97722625732416	152.6376037597656	1160.958862304688	52.16892623901362	317.1313171386719	1036.93310546875	161.5997161865234	342.9451599121094	1047.399780273438	98.17298889160153	401.6356201171875	1045.164916992188	171.6517028808594	-121.4705886840821	624.6392822265625	325.2356567382812	-129.9656372070313	661.0933837890625	440.5152282714843	45.34001159667967	916.0264892578125	182.9832000732421	19.76516151428222	903.7960815429688	53.92825317382807	-137.6949615478516	315.7248840332031	431.3294677734375	-106.6017990112305	313.8330993652344	355.7787170410156	32.37572097778315	211.9793701171875	428.0676879882812	-198.4910430908204	286.4700012207031	384.0951843261719	-58.87863922119142	523.6887817382812	133.9618377685547	-184.4353637695313	656.8555908203125	184.0133819580078	-207.6109008789062	647.947265625	106.0355224609374	-285.701416015625	628.9404907226562	157.0954284667968	
249	2.066666666666666	191.4640808105468	1437.185791015625	267.1022338867186	178.1542816162109	1430.577758789062	142.9375457763671	79.9950256347656	1539.68701171875	278.9145507812499	60.38426971435545	1536.203857421875	149.4619598388671	0.8747602701186731	1390.330810546875	328.7078552246093	-5.113574504852308	1377.872802734375	109.3796386718749	23.15109062194821	1312.90966796875	231.7722015380859	-35.22142410278323	1221.866088867188	237.987319946289	-217.8704376220703	1382.401977539062	247.9736328124999	-403.5962829589844	1109.833251953125	336.6844787597655	-415.2735900878906	1104.0654296875	216.686798095703	-227.8706665039063	1067.18408203125	375.9317626953124	-241.3111419677735	1076.5107421875	152.3378601074218	138.5445404052734	1180.61181640625	478.3428344726562	301.0116577148437	1029.552368164062	405.6923828125	321.1690979003906	1049.047607421875	466.159912109375	404.1976928710937	1028.622924804688	403.910400390625	90.28173828124994	1140.983642578125	452.3847656249999	100.2707901000976	1130.882934570312	78.94178009033197	152.2870483398438	1160.75	51.97068405151362	316.9237976074219	1036.927368164062	161.4346771240234	342.7055969238281	1047.376586914062	98.03008270263669	401.446533203125	1045.2431640625	171.4129333496094	-124.3897094726563	622.3311157226562	324.3707275390624	-134.4520263671876	658.960693359375	439.5066833496093	45.56730651855467	922.0062866210938	183.8701171874999	21.07501602172851	909.3285522460938	54.37417984008783	-147.0431671142579	313.7152099609375	430.6361694335938	-115.8470916748047	311.1807250976562	355.1213684082031	21.46962165832514	207.3966522216797	427.7433471679688	-208.2455291748047	285.2512512207031	383.4341125488281	-49.02681732177736	530.1419067382812	134.5176544189453	-179.1228637695313	658.8502807617188	183.6445922851562	-200.9841461181641	648.9456176757812	105.479621887207	-280.1487731933594	627.66552734375	156.3506927490234	
